# xmcd
#
# Track frame offsets: 
#        150
#        15988
#        29890
#        48158
#        63325
#        79963
#        93473
#        110505
#        123925
#        137430
#        151423
#        168573
#
# Disc length: 2465 seconds
#
# Revision: 3
# Processed by: cddbd v1.5.2PL0 Copyright (c) Steve Scherf et al.
# Submitted via: ExactAudioCopy v0.95a5
#
DISCID=97099f0c
DTITLE=Nappy Brown - Something Gonna Jump Out The Bushes
DYEAR=1988
DGENRE=
TTITLE0=Have Mercy, Mercy Baby!
TTITLE1=Dirty Work
TTITLE2=I'm With You All The Way
TTITLE3=Something Gonna Jump Out The Bushes
TTITLE4=You Mean More To Me Than Gold
TTITLE5=Flamingo
TTITLE6=My Jug And I
TTITLE7=Life's Ups And Downs
TTITLE8=Your Love Is Real
TTITLE9=You Were A Long Time Coming
TTITLE10=Nothing Takes The Place Of You
TTITLE11=I'm Walking Out On You
EXTD=Black Top CD BT-1039\n\nNappy Brown:  vocals\nAnson Funderburgh: 
EXTD=guitar\nRonnie Earl:  guitar\nEarl King:  guitar, piano, tambour
EXTD=ine\nRon Levy:  organ, percussion\nMatt Mc Cabe:  piano\nRhandy S
EXTD=immons:  bass\nMarc Wilson:  drums\nKaz Kazanoff:  alto, tenor and 
EXTD=baritone saxophones\nMr. Excello:  tenor saxophone\nSaxy Boy:  te
EXTD=nor saxophone\nLarry Wallace:  percussion
EXTT0=
EXTT1=
EXTT2=
EXTT3=
EXTT4=
EXTT5=
EXTT6=
EXTT7=
EXTT8=
EXTT9=
EXTT10=
EXTT11=
PLAYORDER=
